<svg version="1.1" id="Layer_1" xmlns="http://www.w3.org/2000/svg" xmlns:xlink="http://www.w3.org/1999/xlink" x="0px" y="0px"
	 width="100%" viewBox="0 0 424 424" enable-background="new 0 0 424 424" xml:space="preserve">
<path fill="#8C9B48" opacity="1.000000" stroke="none" 
	d="
M184.000000,0.999998 
	C203.020889,1.000000 222.041794,1.000000 241.385742,1.407629 
	C243.712433,2.232895 245.711121,2.676092 247.720428,3.064289 
	C272.950104,7.938656 296.930023,16.106033 319.310028,29.001463 
	C343.641113,43.021122 364.532135,61.033577 381.438385,83.253250 
	C403.710175,112.524818 418.253082,145.344742 423.084351,182.122055 
	C423.176025,182.819885 424.337616,183.377151 425.000000,184.000000 
	C425.000000,203.020889 425.000000,222.041794 424.592346,241.385864 
	C423.767120,243.712646 423.324249,245.711380 422.935944,247.720657 
	C418.060455,272.949646 409.896088,296.930267 396.999756,319.309967 
	C382.978973,343.640869 364.966614,364.531677 342.746704,381.438873 
	C313.475006,403.711731 280.654938,418.253113 243.877655,423.084351 
	C243.179916,423.175995 242.622757,424.337585 242.000000,425.000000 
	C222.979111,425.000000 203.958206,425.000000 184.614319,424.592407 
	C182.287140,423.767242 180.287674,423.325195 178.278000,422.935944 
	C153.046524,418.048584 129.053970,409.896759 106.670036,396.994293 
	C82.342842,382.971649 61.448238,364.958984 44.547997,342.739929 
	C22.285740,313.471313 7.735155,280.655365 2.915673,243.878479 
	C2.824223,243.180618 1.662412,242.623032 1.000001,242.000000 
	C1.000000,222.979111 1.000000,203.958206 1.408317,184.609711 
	C2.232163,182.278244 2.671607,180.279007 3.059595,178.269806 
	C7.931118,153.042480 16.111898,129.070587 29.001148,106.693314 
	C43.017578,82.359123 61.033798,61.469662 83.253365,44.562302 
	C112.524315,22.289398 145.344498,7.746836 182.121964,2.915809 
	C182.819824,2.824140 183.377121,1.662446 184.000000,0.999998 
M134.407898,26.864548 
	C104.951530,39.431278 79.548653,57.676682 59.098400,82.303375 
	C19.414131,130.092133 4.153693,184.929199 13.917584,246.317276 
	C21.272913,292.562134 42.783566,331.636841 77.582443,362.720551 
	C124.031334,404.210510 178.753708,421.041962 240.577286,412.964081 
	C289.193878,406.611847 330.207855,384.692993 362.843109,348.290588 
	C401.818024,304.816772 419.011749,253.443085 414.045258,195.162231 
	C409.577454,142.733582 387.936676,97.913063 348.415436,63.494980 
	C285.249481,8.485257 213.481323,-3.074293 134.407898,26.864548 
z"/>
<path fill="#000000" opacity="1.000000" stroke="none" 
	d="
M183.531342,0.999998 
	C183.377121,1.662446 182.819824,2.824140 182.121964,2.915809 
	C145.344498,7.746836 112.524315,22.289398 83.253365,44.562302 
	C61.033798,61.469662 43.017578,82.359123 29.001148,106.693314 
	C16.111898,129.070587 7.931118,153.042480 3.059595,178.269806 
	C2.671607,180.279007 2.232163,182.278244 1.408317,184.141052 
	C1.000000,123.072975 1.000000,62.145950 1.000000,1.000000 
	C61.687386,1.000000 122.375031,1.000000 183.531342,0.999998 
z"/>
<path fill="#000000" opacity="1.000000" stroke="none" 
	d="
M425.000000,183.531342 
	C424.337616,183.377151 423.176025,182.819885 423.084351,182.122055 
	C418.253082,145.344742 403.710175,112.524818 381.438385,83.253250 
	C364.532135,61.033577 343.641113,43.021122 319.310028,29.001463 
	C296.930023,16.106033 272.950104,7.938656 247.720428,3.064289 
	C245.711121,2.676092 243.712433,2.232895 241.854401,1.407629 
	C302.927002,1.000000 363.854034,1.000000 425.000000,1.000000 
	C425.000000,61.687386 425.000000,122.375031 425.000000,183.531342 
z"/>
<path fill="#000000" opacity="1.000000" stroke="none" 
	d="
M1.000001,242.468658 
	C1.662412,242.623032 2.824223,243.180618 2.915673,243.878479 
	C7.735155,280.655365 22.285740,313.471313 44.547997,342.739929 
	C61.448238,364.958984 82.342842,382.971649 106.670036,396.994293 
	C129.053970,409.896759 153.046524,418.048584 178.278000,422.935944 
	C180.287674,423.325195 182.287140,423.767242 184.145660,424.592407 
	C123.072990,425.000000 62.145973,425.000000 1.000000,425.000000 
	C1.000000,364.312622 1.000000,303.624969 1.000001,242.468658 
z"/>
<path fill="#000000" opacity="1.000000" stroke="none" 
	d="
M242.468658,425.000000 
	C242.622757,424.337585 243.179916,423.175995 243.877655,423.084351 
	C280.654938,418.253113 313.475006,403.711731 342.746704,381.438873 
	C364.966614,364.531677 382.978973,343.640869 396.999756,319.309967 
	C409.896088,296.930267 418.060455,272.949646 422.935944,247.720657 
	C423.324249,245.711380 423.767120,243.712646 424.592346,241.854523 
	C425.000000,302.927002 425.000000,363.854034 425.000000,425.000000 
	C364.312622,425.000000 303.624969,425.000000 242.468658,425.000000 
z"/>
<path fill="#FEFEFE" opacity="1.000000" stroke="none" 
	d="
M134.763611,26.724150 
	C213.481323,-3.074293 285.249481,8.485257 348.415436,63.494980 
	C387.936676,97.913063 409.577454,142.733582 414.045258,195.162231 
	C419.011749,253.443085 401.818024,304.816772 362.843109,348.290588 
	C330.207855,384.692993 289.193878,406.611847 240.577286,412.964081 
	C178.753708,421.041962 124.031334,404.210510 77.582443,362.720551 
	C42.783566,331.636841 21.272913,292.562134 13.917584,246.317276 
	C4.153693,184.929199 19.414131,130.092133 59.098400,82.303375 
	C79.548653,57.676682 104.951530,39.431278 134.763611,26.724150 
M235.031555,112.605644 
	C235.041275,113.072906 235.050980,113.540169 234.346436,114.129089 
	C231.631119,112.055695 228.915817,109.982307 226.003357,107.242157 
	C223.474915,104.472115 222.377930,100.217033 217.633362,99.641548 
	C219.581619,102.436775 221.529877,105.232002 223.206268,108.653625 
	C222.955048,109.283516 222.703827,109.913406 222.089676,111.029114 
	C221.683014,111.716690 221.276352,112.404266 220.289703,112.766548 
	C218.298111,111.453445 216.306534,110.140343 214.314941,108.827240 
	C213.988541,109.268173 213.662125,109.709106 213.335724,110.150047 
	C214.968338,111.425705 216.600952,112.701363 218.786255,114.408875 
	C216.141678,115.679382 214.534698,116.451408 212.163437,117.133850 
	C210.341797,118.095879 208.520142,119.057899 206.017822,120.153542 
	C202.711090,121.173737 199.404343,122.193932 195.223129,123.011528 
	C193.089325,123.089363 190.817810,122.720222 188.847092,123.327377 
	C182.492233,125.285286 182.534943,125.423897 177.426971,124.096405 
	C178.197235,126.286980 173.132050,129.319809 178.772659,131.045273 
	C178.177383,132.003357 177.582108,132.961441 176.207596,133.928787 
	C171.276550,135.054611 174.345688,139.345917 172.121750,142.096344 
	C156.506180,142.096344 140.890594,142.096344 125.200958,142.096344 
	C125.200958,145.338638 125.200958,148.023880 125.200958,151.006424 
	C130.443802,151.006424 135.266983,151.183853 140.068634,150.939148 
	C142.899048,150.794876 144.235840,151.657410 144.976135,154.462402 
	C146.800568,161.375275 148.942856,168.204346 150.961746,175.065811 
	C157.859695,198.509109 164.759552,221.951874 171.454498,246.156265 
	C171.368317,247.783310 171.282135,249.410339 170.236633,251.113739 
	C161.083664,251.016861 151.930695,250.919983 142.693268,249.923050 
	C142.689026,225.806778 142.717453,201.690430 142.659439,177.574280 
	C142.643295,170.860428 140.696701,169.034592 133.981949,169.019272 
	C122.338951,168.992722 110.694664,169.094238 99.053543,168.941605 
	C95.361267,168.893204 92.806274,170.137100 90.677742,173.180420 
	C85.343956,180.806564 79.753830,188.252914 74.307343,195.800842 
	C57.099895,219.647430 59.068382,212.016602 59.124935,245.678528 
	C59.174423,249.155380 59.223911,252.632248 59.157757,256.967072 
	C59.168720,258.959198 59.179684,260.951355 58.548885,263.385773 
	C53.665939,266.848022 56.846149,271.891296 56.118542,276.159363 
	C55.588039,279.271240 57.466675,280.694397 60.505684,280.606903 
	C66.254395,280.441406 72.002403,280.251770 78.110603,280.909363 
	C78.289085,298.045776 83.549614,305.769745 97.456200,310.735687 
	C80.977951,310.808624 64.499504,310.856201 48.021740,310.988647 
	C46.102959,311.004059 44.187950,311.488861 42.271191,311.756042 
	C42.323505,312.314087 42.375820,312.872162 42.428131,313.430206 
	C156.612823,313.430206 270.797516,313.430206 384.982208,313.430206 
	C385.052032,312.885681 385.121857,312.341187 385.191711,311.796661 
	C383.760834,311.510376 382.331207,310.983307 380.898926,310.975952 
	C369.568512,310.917664 358.237366,310.996490 346.907043,310.931732 
	C344.986115,310.920776 343.067993,310.423492 341.871277,309.972748 
	C358.565186,306.183197 366.412689,287.760345 358.460449,273.710175 
	C358.194366,273.240082 358.638947,272.367737 359.572388,271.970001 
	C360.440369,271.916962 361.308319,271.863953 363.060669,271.875397 
	C365.640167,271.748901 368.219666,271.622406 370.970856,271.487457 
	C370.970856,266.781128 370.970856,262.393463 371.154022,257.123016 
	C371.154022,255.238190 371.154022,253.353378 371.154022,250.919373 
	C367.464539,250.919373 364.397339,250.919373 361.233032,250.073502 
	C361.153625,248.643341 361.074219,247.213181 361.468323,245.329681 
	C364.638885,243.217850 367.809448,241.106018 371.671265,238.873520 
	C375.388062,236.667892 379.029785,234.319839 382.848297,232.307190 
	C385.350769,230.988174 385.945679,229.555298 385.118500,226.760910 
	C377.099060,199.669495 369.265198,172.523041 361.192230,145.447815 
	C360.784790,144.081253 358.764191,142.436584 357.335175,142.267242 
	C351.648834,141.593369 345.899170,141.453476 339.582825,140.732056 
	C338.202545,137.356689 336.927979,133.931122 335.366211,130.641922 
	C334.984497,129.837982 333.710144,129.118622 332.761932,128.992111 
	C330.659241,128.711578 328.503082,128.831604 326.149414,128.411575 
	C326.149414,128.411575 325.892303,128.059540 325.575928,127.496399 
	C324.120728,126.507179 322.665527,125.517952 320.714661,124.191772 
	C319.627350,126.798973 318.727875,128.955841 317.110046,131.175583 
	C315.982086,130.439133 314.854095,129.702682 314.358093,128.610352 
	C315.006226,126.863434 315.654388,125.116524 316.332306,123.289360 
	C310.940979,119.744484 305.353699,116.070747 299.681580,112.341240 
	C298.377350,114.335930 297.389954,115.846008 295.718536,117.252136 
	C294.100128,118.486565 292.481720,119.720993 290.157684,120.669205 
	C288.909271,119.846230 287.760529,118.752975 286.394379,118.249367 
	C281.707214,116.521484 276.943878,115.000252 271.803284,112.984108 
	C271.650238,112.525452 271.520844,112.057220 271.340149,111.609726 
	C270.371094,109.209702 268.300903,107.840965 266.133484,108.789330 
	C265.170044,109.210907 265.316437,112.092117 264.886505,113.839058 
	C264.632874,114.869720 264.237213,115.865425 263.240204,116.597435 
	C261.471039,116.759911 259.701843,116.922379 257.291260,116.889565 
	C254.906616,117.311653 252.521988,117.733734 249.753311,117.545273 
	C247.864334,116.625374 245.975357,115.705475 244.064362,114.022751 
	C243.527664,109.686455 241.091904,108.121521 236.361954,108.670387 
	C234.889282,106.009033 233.416626,103.347679 231.943954,100.686317 
	C231.358582,100.995171 230.773209,101.304024 230.187820,101.612877 
	C231.820862,105.043839 233.453888,108.474800 235.031555,112.605644 
z"/>
<path fill="#03AD4D" opacity="1.000000" stroke="none" 
	d="
M171.658661,245.394836 
	C164.759552,221.951874 157.859695,198.509109 150.961746,175.065811 
	C148.942856,168.204346 146.800568,161.375275 144.976135,154.462402 
	C144.235840,151.657410 142.899048,150.794876 140.068634,150.939148 
	C135.266983,151.183853 130.443802,151.006424 125.200958,151.006424 
	C125.200958,148.023880 125.200958,145.338638 125.200958,142.096344 
	C140.890594,142.096344 156.506180,142.096344 173.042618,142.053070 
	C179.128159,141.760178 184.292847,141.510574 189.527115,141.290558 
	C189.596710,141.320175 189.740891,141.274490 190.147217,141.445435 
	C194.710052,141.666809 198.866547,141.717239 203.465302,141.850281 
	C206.318039,141.902100 208.728531,141.871292 211.536560,141.911896 
	C213.274170,141.942642 214.614227,141.902008 216.374619,141.935608 
	C218.217636,141.954483 219.640350,141.899124 221.488358,141.912476 
	C223.919479,141.930405 225.925278,141.879623 228.378189,141.907867 
	C231.235443,141.938492 233.645599,141.890106 236.515778,141.907715 
	C241.743713,141.900925 246.511658,141.828140 251.634232,141.842743 
	C253.224380,141.899200 254.459900,141.868271 256.089233,141.883942 
	C257.272247,141.908264 258.061462,141.885986 259.315125,141.906906 
	C262.531830,141.919662 265.284088,141.889221 268.406311,141.903381 
	C269.757111,141.937851 270.737885,141.927704 272.155426,141.947876 
	C274.048218,141.950577 275.504272,141.922974 277.435577,141.955811 
	C280.473114,141.971954 283.035400,141.927628 285.933350,141.899017 
	C288.121643,141.333954 289.974243,140.753174 292.032227,140.490051 
	C294.408051,141.098740 296.578583,141.389755 299.221069,141.797363 
	C306.663025,141.886795 313.633026,141.859619 320.990356,141.902969 
	C324.571198,141.954330 327.764740,141.935181 331.403748,141.964081 
	C334.623840,141.713364 337.398407,141.414581 340.172974,141.115814 
	C345.899170,141.453476 351.648834,141.593369 357.335175,142.267242 
	C358.764191,142.436584 360.784790,144.081253 361.192230,145.447815 
	C369.265198,172.523041 377.099060,199.669495 385.118500,226.760910 
	C385.945679,229.555298 385.350769,230.988174 382.848297,232.307190 
	C379.029785,234.319839 375.388062,236.667892 371.146179,238.615326 
	C369.892303,236.188309 369.083710,234.042603 368.446808,231.847107 
	C361.188629,206.826584 353.963501,181.796448 346.710388,156.774429 
	C345.586273,152.896393 343.586945,150.698639 338.892395,150.892639 
	C328.920013,151.304749 318.920868,151.070023 308.579163,151.175430 
	C308.068054,153.037445 307.372101,154.978989 307.833984,156.588211 
	C314.285858,179.067200 320.969299,201.479721 327.424774,223.957703 
	C329.473663,231.091965 331.017914,238.371140 332.391479,245.630707 
	C328.996704,245.473022 326.003571,245.268631 323.010040,244.656967 
	C321.700409,239.645554 320.410248,235.035873 319.078735,230.438171 
	C311.775055,205.218903 304.406311,180.018188 297.228271,154.763275 
	C296.430084,151.955002 295.145935,150.958969 292.394989,150.987213 
	C281.905151,151.094849 271.414215,151.093445 260.554779,151.123322 
	C256.731415,151.724915 258.287994,153.949036 258.798035,155.692062 
	C261.686340,165.562775 264.708374,175.394653 267.554016,185.277451 
	C273.329163,205.334534 279.020599,225.415726 284.313019,245.560150 
	C280.648224,245.538574 277.417023,245.443832 274.138184,244.975739 
	C272.461151,238.376633 270.943848,232.118927 269.182281,225.930786 
	C262.516724,202.515625 255.745377,179.130585 249.086411,155.713562 
	C248.126511,152.337921 246.338181,150.849869 242.679901,150.943268 
	C234.381912,151.155136 226.074265,150.958878 217.771790,151.046417 
	C215.835938,151.066833 213.905045,151.557327 211.667328,151.884064 
	C210.863129,152.264877 210.363464,152.593155 209.751907,153.050934 
	C209.747803,153.464127 209.855606,153.747803 209.990936,154.422852 
	C214.363342,169.770035 218.727310,184.720322 223.047684,199.683197 
	C227.415176,214.809296 231.739487,229.947861 235.626358,245.139313 
	C232.115814,245.170807 229.061630,245.143951 225.954651,244.723312 
	C220.465637,225.324203 215.034241,206.317505 209.591248,187.314133 
	C206.851654,177.749252 204.215088,168.152023 201.274292,158.649139 
	C200.207870,155.203079 199.819550,150.869308 194.359100,150.973068 
	C184.206451,151.166031 174.049271,151.118912 163.521637,151.156738 
	C159.094116,152.431015 161.401764,155.150757 161.990051,157.183807 
	C167.111252,174.882355 172.432693,192.523010 177.541321,210.225113 
	C180.897308,221.854050 184.000076,233.556091 186.737854,245.243347 
	C181.392532,245.305832 176.525589,245.350342 171.658661,245.394836 
z"/>
<path fill="#058C3C" opacity="1.000000" stroke="none" 
	d="
M308.932709,151.100449 
	C318.920868,151.070023 328.920013,151.304749 338.892395,150.892639 
	C343.586945,150.698639 345.586273,152.896393 346.710388,156.774429 
	C353.963501,181.796448 361.188629,206.826584 368.446808,231.847107 
	C369.083710,234.042603 369.892303,236.188309 370.800598,238.675659 
	C367.809448,241.106018 364.638885,243.217850 360.762817,245.581573 
	C352.080414,245.751648 344.103546,245.669815 336.069946,245.226837 
	C332.419403,232.083450 328.906799,219.277649 325.212402,206.524536 
	C319.854736,188.029877 314.365723,169.573273 308.932709,151.100449 
z"/>
<path fill="#465058" opacity="1.000000" stroke="none" 
	d="
M361.330170,250.919373 
	C364.397339,250.919373 367.464539,250.919373 371.154022,250.919373 
	C371.154022,253.353378 371.154022,255.238190 370.595581,257.557739 
	C363.040436,258.094055 356.043701,258.195587 348.739838,258.262848 
	C346.937836,257.852478 345.442993,257.476379 343.550354,256.980896 
	C341.685852,256.603210 340.219818,256.124176 338.752319,256.119751 
	C318.027008,256.057312 297.301331,256.030426 276.576447,256.131775 
	C275.545380,256.136810 274.520416,257.392059 273.342163,258.188751 
	C272.902374,258.394592 272.672150,258.312103 272.583679,257.635498 
	C268.747375,257.747528 264.828369,258.288910 260.597412,258.866943 
	C259.700958,259.129517 259.116425,259.355530 258.215515,259.240265 
	C255.804062,258.601257 253.709381,258.047760 251.613739,258.044128 
	C219.876480,257.988953 188.139099,258.005829 156.401749,258.005920 
	C142.699524,258.005951 142.699524,258.005981 142.901642,271.910400 
	C142.112701,280.332672 141.862701,280.517487 133.427567,280.573334 
	C131.309235,280.587341 129.193100,280.934448 127.015755,280.734467 
	C126.883354,279.514771 126.959015,278.642792 126.717247,277.870148 
	C121.329056,260.650391 98.388809,254.867401 85.792915,267.815704 
	C82.447548,271.254639 80.396194,275.952423 77.750702,280.072205 
	C72.002403,280.251770 66.254395,280.441406 60.505684,280.606903 
	C57.466675,280.694397 55.588039,279.271240 56.118542,276.159363 
	C56.846149,271.891296 53.665939,266.848022 59.139992,263.188080 
	C60.260654,262.914185 60.790215,262.837982 61.564091,263.054993 
	C63.253780,265.512817 64.845474,267.595551 66.112167,269.860077 
	C68.328651,273.822601 73.984184,274.597351 76.309669,271.108185 
	C78.311432,268.104675 80.259117,265.065155 82.511444,261.962402 
	C83.189598,261.250580 83.587021,260.617920 84.231522,259.764008 
	C88.748413,253.481720 94.629234,250.847076 101.993668,250.908722 
	C110.960777,250.983826 119.930138,250.789139 129.212006,250.755875 
	C129.735245,250.776764 129.944992,250.752930 130.602737,250.792145 
	C134.959717,250.844513 138.868729,250.833817 142.777725,250.823120 
	C151.930695,250.919983 161.083664,251.016861 171.170731,251.036087 
	C235.179947,250.945404 298.255066,250.932388 361.330170,250.919373 
z"/>
<path fill="#08AD50" opacity="1.000000" stroke="none" 
	d="
M142.735504,250.373077 
	C138.868729,250.833817 134.959717,250.844513 130.568573,250.350433 
	C130.062836,238.860291 130.039246,227.874939 130.030701,216.432159 
	C130.066605,206.040863 130.241684,196.102753 129.968552,186.176956 
	C129.918365,184.353134 128.049469,182.579361 126.664337,180.583633 
	C118.076813,180.280594 109.839470,180.324585 101.615288,180.016724 
	C96.673447,179.831726 93.840118,181.962097 92.349777,186.751129 
	C89.329338,190.350372 86.609543,193.804779 83.777527,197.401733 
	C83.062126,195.748383 82.507988,194.467743 81.546982,193.150360 
	C80.373924,193.971878 79.012672,194.785416 78.944214,195.696106 
	C78.642944,199.704193 79.779091,204.173981 74.163116,205.742706 
	C73.575798,205.906769 73.226883,207.754227 73.174919,208.840164 
	C73.048523,211.481506 73.161964,214.134308 73.122772,217.261871 
	C73.037720,229.187653 72.993858,240.634018 72.985100,252.080429 
	C72.979607,259.270264 75.038300,261.461578 82.230713,262.041565 
	C80.259117,265.065155 78.311432,268.104675 76.309669,271.108185 
	C73.984184,274.597351 68.328651,273.822601 66.112167,269.860077 
	C64.845474,267.595551 63.253780,265.512817 61.813705,262.778748 
	C62.246754,260.073486 62.674511,257.937775 63.195557,255.377045 
	C63.159801,251.058411 64.782959,246.469025 59.229656,244.729187 
	C59.068382,212.016602 57.099895,219.647430 74.307343,195.800842 
	C79.753830,188.252914 85.343956,180.806564 90.677742,173.180420 
	C92.806274,170.137100 95.361267,168.893204 99.053543,168.941605 
	C110.694664,169.094238 122.338951,168.992722 133.981949,169.019272 
	C140.696701,169.034592 142.643295,170.860428 142.659439,177.574280 
	C142.717453,201.690430 142.689026,225.806778 142.735504,250.373077 
z"/>
<path fill="#1C2C35" opacity="1.000000" stroke="none" 
	d="
M358.752258,271.682892 
	C358.638947,272.367737 358.194366,273.240082 358.460449,273.710175 
	C366.412689,287.760345 358.565186,306.183197 341.117859,310.030518 
	C337.566406,310.072601 334.768433,310.056915 331.611206,309.962402 
	C314.688660,304.425476 308.346924,290.931305 314.628021,274.708069 
	C314.943695,273.892700 314.384827,272.738770 314.105713,271.403748 
	C314.532715,269.953308 314.866913,268.638428 315.675873,267.761597 
	C323.104523,259.709961 332.297211,256.953735 343.296143,259.113525 
	C346.434814,260.620575 349.689667,261.432648 351.997833,263.371674 
	C354.682220,265.626740 356.537262,268.869049 358.752258,271.682892 
M321.940338,288.118927 
	C324.182861,298.069946 332.641052,303.535400 341.532135,300.171417 
	C349.931976,296.993286 354.528839,288.827759 350.735809,279.625488 
	C348.031250,273.064026 340.902222,269.633179 332.930511,271.045624 
	C326.590332,272.169037 321.954498,278.989990 321.940338,288.118927 
z"/>
<path fill="#1A2A33" opacity="1.000000" stroke="none" 
	d="
M77.930649,280.490784 
	C80.396194,275.952423 82.447548,271.254639 85.792915,267.815704 
	C98.388809,254.867401 121.329056,260.650391 126.717247,277.870148 
	C126.959015,278.642792 126.883354,279.514771 127.049057,281.111267 
	C128.678329,296.163696 121.676147,306.071167 106.763916,310.109985 
	C103.565422,310.057434 100.761040,310.053253 97.956657,310.049072 
	C83.549614,305.769745 78.289085,298.045776 77.930649,280.490784 
M117.598030,289.643250 
	C117.736633,288.324890 118.003922,287.005341 117.992157,285.688324 
	C117.933052,279.072876 113.627754,273.186829 107.570557,271.324432 
	C101.400879,269.427460 94.565262,271.432739 90.880325,276.220642 
	C86.939087,281.341583 86.648964,289.107910 90.305771,294.451202 
	C93.606308,299.273926 98.362206,301.458374 104.067848,300.923584 
	C110.621384,300.309296 115.103668,296.685608 117.598030,289.643250 
z"/>
<path fill="#81909E" opacity="1.000000" stroke="none" 
	d="
M97.706429,310.392395 
	C100.761040,310.053253 103.565422,310.057434 107.065376,310.384827 
	C108.410057,310.806946 109.059120,310.992126 109.708290,310.992432 
	C161.410568,311.018524 213.112839,311.035828 264.815094,311.002441 
	C265.857361,311.001740 266.899261,310.397125 268.330322,310.034729 
	C271.511108,310.029358 274.302887,310.063568 277.367920,310.414429 
	C295.229126,310.833130 312.816956,310.943848 330.404999,310.995117 
	C330.925873,310.996643 331.448578,310.373230 331.970428,310.041229 
	C334.768433,310.056915 337.566406,310.072601 340.756470,310.119568 
	C343.067993,310.423492 344.986115,310.920776 346.907043,310.931732 
	C358.237366,310.996490 369.568512,310.917664 380.898926,310.975952 
	C382.331207,310.983307 383.760834,311.510376 385.191711,311.796661 
	C385.121857,312.341187 385.052032,312.885681 384.982208,313.430206 
	C270.797516,313.430206 156.612823,313.430206 42.428131,313.430206 
	C42.375820,312.872162 42.323505,312.314087 42.271191,311.756042 
	C44.187950,311.488861 46.102959,311.004059 48.021740,310.988647 
	C64.499504,310.856201 80.977951,310.808624 97.706429,310.392395 
z"/>
<path fill="#283039" opacity="1.000000" stroke="none" 
	d="
M361.281616,250.496429 
	C298.255066,250.932388 235.179947,250.945404 171.650391,250.997910 
	C171.282135,249.410339 171.368317,247.783310 171.556580,245.775543 
	C176.525589,245.350342 181.392532,245.305832 187.014694,245.348633 
	C188.560287,245.483170 189.350662,245.530396 190.594238,245.651398 
	C197.146301,245.771103 203.247040,245.929977 209.343491,245.829651 
	C214.900558,245.738220 220.452988,245.365707 226.007462,245.117081 
	C229.061630,245.143951 232.115814,245.170807 235.860413,245.132553 
	C236.550858,245.067444 237.015137,244.997131 237.356873,245.221283 
	C249.861008,245.413315 262.023407,245.381195 274.185791,245.349091 
	C277.417023,245.443832 280.648224,245.538574 284.704834,245.668823 
	C286.060364,245.637726 286.590546,245.571136 287.572083,245.596069 
	C295.120148,245.746048 302.218292,245.913513 309.313171,245.823776 
	C313.881378,245.765991 318.444824,245.330444 323.010406,245.064209 
	C326.003571,245.268631 328.996704,245.473022 332.802917,245.735321 
	C334.452850,245.724808 335.289764,245.656387 336.126648,245.587982 
	C344.103546,245.669815 352.080414,245.751648 360.526062,245.808258 
	C361.074219,247.213181 361.153625,248.643341 361.281616,250.496429 
z"/>
<path fill="#8098AE" opacity="1.000000" stroke="none" 
	d="
M276.960297,141.895355 
	C275.504272,141.922974 274.048218,141.950577 272.175110,141.569458 
	C270.483734,138.101807 269.209473,135.042908 267.968414,131.626923 
	C267.403015,128.654114 270.981110,124.748825 265.954498,122.890579 
	C263.968353,126.434761 266.213837,131.393539 260.699829,132.019699 
	C258.976471,129.920807 257.482056,128.065262 256.194489,125.885483 
	C256.911774,122.735764 257.422211,119.910301 257.932678,117.084846 
	C259.701843,116.922379 261.471039,116.759911 263.877930,116.894119 
	C266.299255,118.595596 268.082794,120.000389 269.093414,120.796379 
	C272.208191,120.568878 274.387268,120.409714 278.167480,120.133606 
	C275.738281,117.388222 273.973907,115.394226 272.209564,113.400230 
	C276.943878,115.000252 281.707214,116.521484 286.394379,118.249367 
	C287.760529,118.752975 288.909271,119.846230 290.647339,121.061363 
	C293.745453,122.992226 296.353882,124.530922 298.850586,126.383942 
	C297.472198,127.686501 296.010590,129.691086 294.971771,129.491791 
	C289.718475,128.484024 289.160370,132.647446 287.174347,135.718292 
	C286.158417,136.170364 285.429962,136.535522 284.330566,136.901459 
	C276.275696,136.243057 276.275696,136.243057 276.960297,141.895355 
z"/>
<path fill="#317653" opacity="1.000000" stroke="none" 
	d="
M206.698502,120.019920 
	C208.520142,119.057899 210.341797,118.095879 212.877213,117.379318 
	C217.268600,118.123184 221.430069,119.398537 220.869705,113.091843 
	C221.276352,112.404266 221.683014,111.716690 222.604950,110.990616 
	C225.137207,113.436653 227.548950,115.699333 229.094116,118.448982 
	C233.084808,125.550606 238.390930,126.950981 245.011124,122.287437 
	C246.607742,121.162735 248.347321,120.240997 250.089813,119.434509 
	C250.158447,119.643105 250.304535,120.057297 250.264618,120.511475 
	C249.993866,123.868996 249.763016,126.772324 249.489960,130.206436 
	C244.334869,130.206436 239.620529,130.206436 234.569519,130.107269 
	C231.781158,128.878571 228.557968,126.216522 227.055664,126.972824 
	C224.706009,128.155701 223.520798,131.651611 221.477356,134.138214 
	C220.140106,133.986237 219.167801,133.863678 217.902924,133.572784 
	C211.819260,130.698837 208.199905,126.222725 206.698502,120.019920 
z"/>
<path fill="#D49834" opacity="1.000000" stroke="none" 
	d="
M287.461823,135.631393 
	C289.160370,132.647446 289.718475,128.484024 294.971771,129.491791 
	C296.010590,129.691086 297.472198,127.686501 299.152710,126.188614 
	C300.496185,125.040794 301.425751,124.402618 302.581207,123.944305 
	C306.446777,125.738190 310.086456,127.352211 313.726135,128.966232 
	C314.854095,129.702682 315.982086,130.439133 317.527771,131.495941 
	C318.886230,132.366409 319.826965,132.916534 320.741577,133.835312 
	C320.677948,136.746811 320.640472,139.289627 320.603027,141.832458 
	C313.633026,141.859619 306.663025,141.886795 299.220367,141.464737 
	C298.659760,140.196671 298.702332,139.336182 298.457092,138.567505 
	C297.917297,136.875488 297.587646,134.172150 296.522736,133.814301 
	C294.943756,133.283722 292.801697,134.428802 290.561890,134.951660 
	C289.303558,135.238953 288.382690,135.435165 287.461823,135.631393 
z"/>
<path fill="#EBAE3E" opacity="1.000000" stroke="none" 
	d="
M206.358154,120.086731 
	C208.199905,126.222725 211.819260,130.698837 217.859528,133.972412 
	C217.390579,136.980698 216.672440,139.421036 215.954300,141.861389 
	C214.614227,141.902008 213.274170,141.942642 211.549194,141.555115 
	C211.880341,138.825043 212.596390,136.523132 213.312424,134.221237 
	C210.659042,133.820816 208.001663,133.444748 205.354202,133.008377 
	C204.242645,132.825165 203.033051,132.737701 202.071396,132.225143 
	C195.945465,128.960022 195.940323,128.913254 192.978638,134.945847 
	C192.180405,136.571732 191.574829,138.292206 190.648605,140.145050 
	C190.191223,140.638733 189.966049,140.956619 189.740891,141.274490 
	C189.740891,141.274490 189.596710,141.320175 189.225525,141.086365 
	C187.973724,140.508850 187.093094,140.165146 186.001480,139.611771 
	C185.224472,139.236572 184.658432,139.071030 184.058746,138.682480 
	C184.025101,138.459473 183.896408,138.027161 184.054016,137.722382 
	C186.483276,134.799744 188.754929,132.181900 191.367645,129.440186 
	C193.171692,127.282272 194.634644,125.248192 196.097610,123.214119 
	C199.404343,122.193932 202.711090,121.173737 206.358154,120.086731 
z"/>
<path fill="#5AA96D" opacity="1.000000" stroke="none" 
	d="
M250.021164,119.225906 
	C248.347321,120.240997 246.607742,121.162735 245.011124,122.287437 
	C238.390930,126.950981 233.084808,125.550606 229.094116,118.448982 
	C227.548950,115.699333 225.137207,113.436653 222.786438,110.747711 
	C222.703827,109.913406 222.955048,109.283516 223.682404,108.324966 
	C224.839188,107.967178 225.519852,107.938042 226.200500,107.908905 
	C228.915817,109.982307 231.631119,112.055695 235.129242,114.048309 
	C238.636826,114.240211 241.361603,114.512894 244.086380,114.785576 
	C245.975357,115.705475 247.864334,116.625374 249.936874,118.120132 
	C250.087341,118.871971 250.054260,119.048943 250.021164,119.225906 
z"/>
<path fill="#2D343E" opacity="1.000000" stroke="none" 
	d="
M349.046997,258.297119 
	C356.043701,258.195587 363.040436,258.094055 370.503998,257.999146 
	C370.970856,262.393463 370.970856,266.781128 370.970856,271.487457 
	C368.219666,271.622406 365.640167,271.748901 362.642151,271.482605 
	C359.900726,264.694183 354.194794,261.783112 349.046997,258.297119 
z"/>
<path fill="#864C1F" opacity="1.000000" stroke="none" 
	d="
M314.042114,128.788300 
	C310.086456,127.352211 306.446777,125.738190 302.272156,123.812614 
	C299.958984,121.452744 298.180786,119.404419 296.402588,117.356087 
	C297.389954,115.846008 298.377350,114.335930 299.681580,112.341240 
	C305.353699,116.070747 310.940979,119.744484 316.332306,123.289360 
	C315.654388,125.116524 315.006226,126.863434 314.042114,128.788300 
z"/>
<path fill="#BFC8CD" opacity="1.000000" stroke="none" 
	d="
M339.877899,140.923935 
	C337.398407,141.414581 334.623840,141.713364 331.416138,141.611237 
	C330.679108,139.116531 330.310547,137.765915 327.533264,139.167465 
	C326.316986,139.781281 324.169830,138.950821 322.647858,138.301559 
	C322.220764,138.119339 322.047485,135.764862 322.574402,135.261322 
	C323.583130,134.297302 325.177460,133.946045 326.618225,133.300446 
	C326.547455,132.020523 326.458099,130.404404 326.368744,128.788300 
	C328.503082,128.831604 330.659241,128.711578 332.761932,128.992111 
	C333.710144,129.118622 334.984497,129.837982 335.366211,130.641922 
	C336.927979,133.931122 338.202545,137.356689 339.877899,140.923935 
z"/>
<path fill="#B8C4CF" opacity="1.000000" stroke="none" 
	d="
M272.006409,113.192169 
	C273.973907,115.394226 275.738281,117.388222 278.167480,120.133606 
	C274.387268,120.409714 272.208191,120.568878 269.093414,120.796379 
	C268.082794,120.000389 266.299255,118.595596 264.210571,117.033829 
	C264.237213,115.865425 264.632874,114.869720 264.886505,113.839058 
	C265.316437,112.092117 265.170044,109.210907 266.133484,108.789330 
	C268.300903,107.840965 270.371094,109.209702 271.340149,111.609726 
	C271.520844,112.057220 271.650238,112.525452 272.006409,113.192169 
z"/>
<path fill="#B3C2C6" opacity="1.000000" stroke="none" 
	d="
M191.026566,129.564041 
	C188.754929,132.181900 186.483276,134.799744 183.754684,137.570312 
	C181.194092,136.455200 179.090469,135.187378 176.986832,133.919540 
	C177.582108,132.961441 178.177383,132.003357 179.031403,130.430817 
	C184.730164,126.041344 187.619736,125.979225 191.026566,129.564041 
z"/>
<path fill="#3C7B5D" opacity="1.000000" stroke="none" 
	d="
M191.367645,129.440186 
	C187.619736,125.979225 184.730164,126.041344 179.143188,130.105591 
	C173.132050,129.319809 178.197235,126.286980 177.426971,124.096405 
	C182.534943,125.423897 182.492233,125.285286 188.847092,123.327377 
	C190.817810,122.720222 193.089325,123.089363 195.660370,123.112823 
	C194.634644,125.248192 193.171692,127.282272 191.367645,129.440186 
z"/>
<path fill="#788A95" opacity="1.000000" stroke="none" 
	d="
M176.597214,133.924164 
	C179.090469,135.187378 181.194092,136.455200 183.597076,137.875092 
	C183.896408,138.027161 184.025101,138.459473 183.859131,138.872711 
	C184.532913,139.464447 185.372696,139.642944 186.212463,139.821442 
	C187.093094,140.165146 187.973724,140.508850 189.155945,141.056763 
	C184.292847,141.510574 179.128159,141.760178 173.506561,141.959900 
	C174.345688,139.345917 171.276550,135.054611 176.597214,133.924164 
z"/>
<path fill="#96A4AC" opacity="1.000000" stroke="none" 
	d="
M348.739838,258.262848 
	C354.194794,261.783112 359.900726,264.694183 362.199951,271.450378 
	C361.308319,271.863953 360.440369,271.916962 359.162323,271.826447 
	C356.537262,268.869049 354.682220,265.626740 351.997833,263.371674 
	C349.689667,261.432648 346.434814,260.620575 343.412567,258.884460 
	C343.467102,258.005920 343.707611,257.553070 343.948151,257.100250 
	C345.442993,257.476379 346.937836,257.852478 348.739838,258.262848 
z"/>
<path fill="#80C5ED" opacity="1.000000" stroke="none" 
	d="
M296.060547,117.304108 
	C298.180786,119.404419 299.958984,121.452744 302.046265,123.632751 
	C301.425751,124.402618 300.496185,125.040794 299.264465,125.874298 
	C296.353882,124.530922 293.745453,122.992226 291.000153,121.204468 
	C292.481720,119.720993 294.100128,118.486565 296.060547,117.304108 
z"/>
<path fill="#879FAA" opacity="1.000000" stroke="none" 
	d="
M326.259094,128.599945 
	C326.458099,130.404404 326.547455,132.020523 326.618225,133.300446 
	C325.177460,133.946045 323.583130,134.297302 322.574402,135.261322 
	C322.047485,135.764862 322.220764,138.119339 322.647858,138.301559 
	C324.169830,138.950821 326.316986,139.781281 327.533264,139.167465 
	C330.310547,137.765915 330.679108,139.116531 330.970642,141.563171 
	C327.764740,141.935181 324.571198,141.954330 320.990356,141.902969 
	C320.640472,139.289627 320.677948,136.746811 320.964722,133.544342 
	C322.773499,131.276306 324.332886,129.667923 325.892303,128.059540 
	C325.892303,128.059540 326.149414,128.411575 326.259094,128.599945 
z"/>
<path fill="#714836" opacity="1.000000" stroke="none" 
	d="
M250.089813,119.434509 
	C250.054260,119.048943 250.087341,118.871971 250.128891,118.425400 
	C252.521988,117.733734 254.906616,117.311653 257.611938,116.987206 
	C257.422211,119.910301 256.911774,122.735764 255.908661,125.691742 
	C253.712158,123.900597 252.008347,121.978943 250.304535,120.057297 
	C250.304535,120.057297 250.158447,119.643105 250.089813,119.434509 
z"/>
<path fill="#89D0F6" opacity="1.000000" stroke="none" 
	d="
M325.734131,127.777969 
	C324.332886,129.667923 322.773499,131.276306 320.990906,133.175674 
	C319.826965,132.916534 318.886230,132.366409 317.886932,131.464508 
	C318.727875,128.955841 319.627350,126.798973 320.714661,124.191772 
	C322.665527,125.517952 324.120728,126.507179 325.734131,127.777969 
z"/>
<path fill="#999064" opacity="1.000000" stroke="none" 
	d="
M220.579712,112.929199 
	C221.430069,119.398537 217.268600,118.123184 213.259354,117.424103 
	C214.534698,116.451408 216.141678,115.679382 218.786255,114.408875 
	C216.600952,112.701363 214.968338,111.425705 213.335724,110.150047 
	C213.662125,109.709106 213.988541,109.268173 214.314941,108.827240 
	C216.306534,110.140343 218.298111,111.453445 220.579712,112.929199 
z"/>
<path fill="#CED0CB" opacity="1.000000" stroke="none" 
	d="
M59.177296,245.203857 
	C64.782959,246.469025 63.159801,251.058411 62.808640,255.392517 
	C61.310089,255.925003 60.291744,256.017059 59.273399,256.109100 
	C59.223911,252.632248 59.174423,249.155380 59.177296,245.203857 
z"/>
<path fill="#B6C1C6" opacity="1.000000" stroke="none" 
	d="
M244.075378,114.404160 
	C241.361603,114.512894 238.636826,114.240211 235.486359,113.987473 
	C235.050980,113.540169 235.041275,113.072906 235.337402,112.145126 
	C236.063095,110.828194 236.482941,109.971771 236.902786,109.115356 
	C241.091904,108.121521 243.527664,109.686455 244.075378,114.404160 
z"/>
<path fill="#788188" opacity="1.000000" stroke="none" 
	d="
M236.632370,108.892868 
	C236.482941,109.971771 236.063095,110.828194 235.365082,111.795189 
	C233.453888,108.474800 231.820862,105.043839 230.187820,101.612877 
	C230.773209,101.304024 231.358582,100.995171 231.943954,100.686317 
	C233.416626,103.347679 234.889282,106.009033 236.632370,108.892868 
z"/>
<path fill="#6C787D" opacity="1.000000" stroke="none" 
	d="
M226.101929,107.575531 
	C225.519852,107.938042 224.839188,107.967178 223.818329,108.011765 
	C221.529877,105.232002 219.581619,102.436775 217.633362,99.641548 
	C222.377930,100.217033 223.474915,104.472115 226.101929,107.575531 
z"/>
<path fill="#ED9929" opacity="1.000000" stroke="none" 
	d="
M59.215576,256.538086 
	C60.291744,256.017059 61.310089,255.925003 62.715347,255.817505 
	C62.674511,257.937775 62.246754,260.073486 61.569389,262.485474 
	C60.790215,262.837982 60.260654,262.914185 59.460869,262.966919 
	C59.179684,260.951355 59.168720,258.959198 59.215576,256.538086 
z"/>
<path fill="#058C3C" opacity="1.000000" stroke="none" 
	d="
M274.138184,244.975739 
	C262.023407,245.381195 249.861008,245.413315 237.424927,244.841797 
	C236.823837,240.854996 237.014038,237.322495 236.087662,234.112183 
	C228.163773,206.652191 220.037567,179.250595 211.971863,151.831528 
	C213.905045,151.557327 215.835938,151.066833 217.771790,151.046417 
	C226.074265,150.958878 234.381912,151.155136 242.679901,150.943268 
	C246.338181,150.849869 248.126511,152.337921 249.086411,155.713562 
	C255.745377,179.130585 262.516724,202.515625 269.182281,225.930786 
	C270.943848,232.118927 272.461151,238.376633 274.138184,244.975739 
z"/>
<path fill="#058C3C" opacity="1.000000" stroke="none" 
	d="
M225.954651,244.723297 
	C220.452988,245.365707 214.900558,245.738220 209.343491,245.829651 
	C203.247040,245.929977 197.146301,245.771103 190.552460,245.291534 
	C188.383255,238.445984 186.842468,231.995651 185.008972,225.629608 
	C180.108215,208.613586 175.020248,191.651413 170.132965,174.631577 
	C167.900101,166.855621 165.964417,158.994324 163.893967,151.171738 
	C174.049271,151.118912 184.206451,151.166031 194.359100,150.973068 
	C199.819550,150.869308 200.207870,155.203079 201.274292,158.649139 
	C204.215088,168.152023 206.851654,177.749252 209.591248,187.314133 
	C215.034241,206.317505 220.465637,225.324203 225.954651,244.723297 
z"/>
<path fill="#058C3C" opacity="1.000000" stroke="none" 
	d="
M323.010040,244.656952 
	C318.444824,245.330444 313.881378,245.765991 309.313171,245.823776 
	C302.218292,245.913513 295.120148,245.746048 287.540771,245.223618 
	C286.903229,243.281219 286.969391,241.738098 286.558777,240.334473 
	C282.885223,227.776474 279.026733,215.271957 275.419464,202.695267 
	C270.497131,185.533691 265.747406,168.322632 260.923676,151.132782 
	C271.414215,151.093445 281.905151,151.094849 292.394989,150.987213 
	C295.145935,150.958969 296.430084,151.955002 297.228271,154.763275 
	C304.406311,180.018188 311.775055,205.218903 319.078735,230.438171 
	C320.410248,235.035873 321.700409,239.645554 323.010040,244.656952 
z"/>
<path fill="#8D4E30" opacity="1.000000" stroke="none" 
	d="
M221.842285,134.167648 
	C223.520798,131.651611 224.706009,128.155701 227.055664,126.972824 
	C228.557968,126.216522 231.781158,128.878571 234.661224,130.458893 
	C236.363266,134.341309 239.278687,134.019119 242.094040,134.016479 
	C249.940231,134.009140 249.940247,134.024384 251.279587,141.755356 
	C246.511658,141.828140 241.743713,141.900925 236.443451,141.583038 
	C232.263977,135.994873 230.986099,136.096802 227.931091,141.828842 
	C225.925278,141.879623 223.919479,141.930405 221.498047,141.527618 
	C221.335709,138.771927 221.589005,136.469788 221.842285,134.167648 
z"/>
<path fill="#03742F" opacity="1.000000" stroke="none" 
	d="
M260.554779,151.123322 
	C265.747406,168.322632 270.497131,185.533691 275.419464,202.695267 
	C279.026733,215.271957 282.885223,227.776474 286.558777,240.334473 
	C286.969391,241.738098 286.903229,243.281219 287.089447,245.132111 
	C286.590546,245.571136 286.060364,245.637726 285.138367,245.595642 
	C279.020599,225.415726 273.329163,205.334534 267.554016,185.277451 
	C264.708374,175.394653 261.686340,165.562775 258.798035,155.692062 
	C258.287994,153.949036 256.731415,151.724915 260.554779,151.123322 
z"/>
<path fill="#077031" opacity="1.000000" stroke="none" 
	d="
M336.069946,245.226837 
	C335.289764,245.656387 334.452850,245.724808 333.204529,245.688614 
	C331.017914,238.371140 329.473663,231.091965 327.424774,223.957703 
	C320.969299,201.479721 314.285858,179.067200 307.833984,156.588211 
	C307.372101,154.978989 308.068054,153.037445 308.579163,151.175430 
	C314.365723,169.573273 319.854736,188.029877 325.212402,206.524536 
	C328.906799,219.277649 332.419403,232.083450 336.069946,245.226837 
z"/>
<path fill="#037530" opacity="1.000000" stroke="none" 
	d="
M211.667328,151.884064 
	C220.037567,179.250595 228.163773,206.652191 236.087662,234.112183 
	C237.014038,237.322495 236.823837,240.854996 237.083191,244.617645 
	C237.015137,244.997131 236.550858,245.067444 236.316803,245.074219 
	C231.739487,229.947861 227.415176,214.809296 223.047684,199.683197 
	C218.727310,184.720322 214.363342,169.770035 209.980682,154.143921 
	C209.916519,153.289536 209.890152,153.105469 209.863800,152.921417 
	C210.363464,152.593155 210.863129,152.264877 211.667328,151.884064 
z"/>
<path fill="#086F33" opacity="1.000000" stroke="none" 
	d="
M163.521637,151.156738 
	C165.964417,158.994324 167.900101,166.855621 170.132965,174.631577 
	C175.020248,191.651413 180.108215,208.613586 185.008972,225.629608 
	C186.842468,231.995651 188.383255,238.445984 190.099243,245.217758 
	C189.350662,245.530396 188.560287,245.483170 187.493088,245.330658 
	C184.000076,233.556091 180.897308,221.854050 177.541321,210.225113 
	C172.432693,192.523010 167.111252,174.882355 161.990051,157.183807 
	C161.401764,155.150757 159.094116,152.431015 163.521637,151.156738 
z"/>
<path fill="#C18829" opacity="1.000000" stroke="none" 
	d="
M251.634232,141.842743 
	C249.940247,134.024384 249.940231,134.009140 242.094040,134.016479 
	C239.278687,134.019119 236.363266,134.341309 234.997910,130.558075 
	C239.620529,130.206436 244.334869,130.206436 249.489960,130.206436 
	C249.763016,126.772324 249.993866,123.868996 250.264618,120.511475 
	C252.008347,121.978943 253.712158,123.900597 255.701813,126.015991 
	C257.482056,128.065262 258.976471,129.920807 260.495331,132.257599 
	C258.911652,135.771698 257.303528,138.804520 255.695404,141.837341 
	C254.459900,141.868271 253.224380,141.899200 251.634232,141.842743 
z"/>
<path fill="#7F95A2" opacity="1.000000" stroke="none" 
	d="
M190.880829,139.969254 
	C191.574829,138.292206 192.180405,136.571732 192.978638,134.945847 
	C195.940323,128.913254 195.945465,128.960022 202.071396,132.225143 
	C203.033051,132.737701 204.242645,132.825165 205.354202,133.008377 
	C208.001663,133.444748 210.659042,133.820816 213.312424,134.221237 
	C212.596390,136.523132 211.880341,138.825043 211.151657,141.483719 
	C208.728531,141.871292 206.318039,141.902100 203.396210,141.527969 
	C201.251480,137.248032 198.534195,136.776688 194.995789,138.500824 
	C193.694580,139.134872 192.256485,139.487991 190.880829,139.969254 
z"/>
<path fill="#48B07B" opacity="1.000000" stroke="none" 
	d="
M256.089233,141.883942 
	C257.303528,138.804520 258.911652,135.771698 260.724274,132.500977 
	C266.213837,131.393539 263.968353,126.434761 265.954498,122.890579 
	C270.981110,124.748825 267.403015,128.654114 267.680664,131.749466 
	C266.834625,133.090332 266.309540,133.951569 265.412750,134.854309 
	C260.660614,135.160019 259.057037,137.891205 258.850677,141.863708 
	C258.061462,141.885986 257.272247,141.908264 256.089233,141.883942 
z"/>
<path fill="#C72F22" opacity="1.000000" stroke="none" 
	d="
M290.899323,134.860580 
	C292.801697,134.428802 294.943756,133.283722 296.522736,133.814301 
	C297.587646,134.172150 297.917297,136.875488 298.457092,138.567505 
	C298.702332,139.336182 298.659760,140.196671 298.748413,141.348145 
	C296.578583,141.389755 294.408051,141.098740 292.072327,140.102020 
	C291.571167,137.884399 291.235260,136.372498 290.899323,134.860580 
z"/>
<path fill="#2B7853" opacity="1.000000" stroke="none" 
	d="
M259.315125,141.906906 
	C259.057037,137.891205 260.660614,135.160019 265.626892,135.179825 
	C266.820618,137.595474 267.428467,139.727112 268.036316,141.858765 
	C265.284088,141.889221 262.531830,141.919662 259.315125,141.906906 
z"/>
<path fill="#B0C0C8" opacity="1.000000" stroke="none" 
	d="
M277.435577,141.955811 
	C276.275696,136.243057 276.275696,136.243057 284.304077,137.242462 
	C284.964935,139.016235 285.281281,140.449768 285.597656,141.883301 
	C283.035400,141.927628 280.473114,141.971954 277.435577,141.955811 
z"/>
<path fill="#788A95" opacity="1.000000" stroke="none" 
	d="
M190.648605,140.145050 
	C192.256485,139.487991 193.694580,139.134872 194.995789,138.500824 
	C198.534195,136.776688 201.251480,137.248032 202.953949,141.445343 
	C198.866547,141.717239 194.710052,141.666809 190.147217,141.445435 
	C189.966049,140.956619 190.191223,140.638733 190.648605,140.145050 
z"/>
<path fill="#D04322" opacity="1.000000" stroke="none" 
	d="
M285.933350,141.899017 
	C285.281281,140.449768 284.964935,139.016235 284.675049,137.241699 
	C285.429962,136.535522 286.158417,136.170364 287.174347,135.718292 
	C288.382690,135.435165 289.303558,135.238953 290.561890,134.951660 
	C291.235260,136.372498 291.571167,137.884399 291.867004,139.784363 
	C289.974243,140.753174 288.121643,141.333954 285.933350,141.899017 
z"/>
<path fill="#BD892B" opacity="1.000000" stroke="none" 
	d="
M221.477341,134.138214 
	C221.589005,136.469788 221.335709,138.771927 221.072723,141.458908 
	C219.640350,141.899124 218.217636,141.954483 216.374619,141.935608 
	C216.672440,139.421036 217.390579,136.980698 218.152115,134.140732 
	C219.167801,133.863678 220.140106,133.986237 221.477341,134.138214 
z"/>
<path fill="#265F48" opacity="1.000000" stroke="none" 
	d="
M268.406311,141.903381 
	C267.428467,139.727112 266.820618,137.595474 265.998596,135.138306 
	C266.309540,133.951569 266.834625,133.090332 267.647461,132.106537 
	C269.209473,135.042908 270.483734,138.101807 271.738342,141.539124 
	C270.737885,141.927704 269.757111,141.937851 268.406311,141.903381 
z"/>
<path fill="#6B3F29" opacity="1.000000" stroke="none" 
	d="
M228.378189,141.907867 
	C230.986099,136.096802 232.263977,135.994873 235.983444,141.517029 
	C233.645599,141.890106 231.235443,141.938492 228.378189,141.907867 
z"/>
<path fill="#058C3C" opacity="1.000000" stroke="none" 
	d="
M209.751907,153.050934 
	C209.890152,153.105469 209.916519,153.289536 209.953125,153.752548 
	C209.855606,153.747803 209.747803,153.464127 209.751907,153.050934 
z"/>
<path fill="#FDFDFD" opacity="1.000000" stroke="none" 
	d="
M267.941315,310.074280 
	C266.899261,310.397125 265.857361,311.001740 264.815094,311.002441 
	C213.112839,311.035828 161.410568,311.018524 109.708290,310.992432 
	C109.059120,310.992126 108.410057,310.806946 107.459488,310.433197 
	C121.676147,306.071167 128.678329,296.163696 127.109253,281.505249 
	C129.193100,280.934448 131.309235,280.587341 133.427567,280.573334 
	C141.862701,280.517487 142.112701,280.332672 143.355423,271.925446 
	C147.290924,271.625153 150.621231,271.610901 153.988464,272.061981 
	C154.007294,281.802307 154.112900,281.916840 161.322998,280.206024 
	C162.451920,280.297760 163.220383,280.234314 164.356567,280.345612 
	C177.559235,280.477234 190.394180,280.434113 203.524048,280.452271 
	C204.209335,280.442596 204.599701,280.371582 205.404114,280.393738 
	C210.207352,281.624939 212.586945,280.340851 212.118790,275.396912 
	C211.994934,274.088867 212.216110,272.748169 212.723572,271.496338 
	C224.135666,271.689972 235.103012,271.809692 246.093658,272.193848 
	C246.373093,272.267395 246.629257,272.076508 247.094543,271.816101 
	C247.303680,271.746613 247.741608,271.696686 248.158875,271.837708 
	C249.146515,271.872070 249.716904,271.765411 250.698792,271.784363 
	C251.078812,272.625122 251.293106,273.478577 250.979843,274.035095 
	C243.218399,287.823639 251.051743,306.375275 267.941315,310.074280 
z"/>
<path fill="#01AD4D" opacity="1.000000" stroke="none" 
	d="
M128.898529,250.711151 
	C119.930138,250.789139 110.960777,250.983826 101.993668,250.908722 
	C94.629234,250.847076 88.748413,253.481720 83.817429,259.764832 
	C76.438499,259.830139 75.007278,258.421661 74.989601,251.799576 
	C74.964897,242.546112 74.928696,233.291977 75.029793,224.039551 
	C75.048676,222.311600 75.690430,220.590454 76.509995,218.891998 
	C92.350494,218.930161 107.725853,218.973557 123.100838,218.915970 
	C125.043304,218.908707 126.983788,218.371399 128.937439,218.543152 
	C128.932632,229.574829 128.915588,240.142990 128.898529,250.711151 
M121.284981,235.925949 
	C122.169746,234.853165 123.054512,233.780380 123.939278,232.707581 
	C122.242416,232.203064 120.524628,231.273849 118.856667,231.356049 
	C117.882645,231.404037 116.988304,233.068619 116.058121,234.005936 
	C117.519150,234.654816 118.980179,235.303696 121.284981,235.925949 
z"/>
<path fill="#1C2C35" opacity="1.000000" stroke="none" 
	d="
M268.330322,310.034729 
	C251.051743,306.375275 243.218399,287.823639 250.979843,274.035095 
	C251.293106,273.478577 251.078812,272.625122 250.704926,271.453796 
	C253.906784,267.557587 257.514038,264.117554 261.519531,260.578979 
	C265.445496,259.675232 268.973236,258.870056 272.500977,258.064880 
	C272.672150,258.312103 272.902374,258.394592 273.758575,258.272308 
	C277.066559,258.839752 279.975647,259.053192 282.514496,260.135284 
	C288.115814,262.522552 293.745361,265.104401 295.363434,271.710449 
	C294.839447,272.480652 294.309570,273.467377 294.604187,273.982666 
	C302.459015,287.720459 294.477722,306.621002 277.094635,310.097809 
	C274.302887,310.063568 271.511108,310.029358 268.330322,310.034729 
M259.359100,292.778412 
	C263.487976,299.383942 269.616180,302.212921 276.089233,300.501526 
	C283.249146,298.608521 287.579651,293.656830 287.983734,286.900848 
	C288.363922,280.544067 285.218842,275.023560 279.626862,272.232208 
	C274.680634,269.763153 267.486023,270.441681 263.661041,273.737946 
	C257.678497,278.893555 256.385986,283.985565 259.359100,292.778412 
z"/>
<path fill="#2A323C" opacity="1.000000" stroke="none" 
	d="
M153.951538,271.596619 
	C150.621231,271.610901 147.290924,271.625153 143.506836,271.624390 
	C142.699524,258.005981 142.699524,258.005951 156.401749,258.005920 
	C188.139099,258.005829 219.876480,257.988953 251.613739,258.044128 
	C253.709381,258.047760 255.804062,258.601257 257.920959,259.408630 
	C253.606308,263.033722 248.408951,265.403534 247.741608,271.696686 
	C247.741608,271.696686 247.303680,271.746613 246.883499,271.691223 
	C246.463318,271.635803 246.070374,271.929382 246.070374,271.929382 
	C235.103012,271.809692 224.135666,271.689972 212.717117,271.534790 
	C212.265930,271.499359 212.306473,271.444183 212.438446,271.045959 
	C212.570404,267.880859 212.570404,265.114014 212.570404,262.001099 
	C209.936661,262.001099 207.969223,262.001099 205.600189,261.987793 
	C204.397537,262.036774 203.596466,262.099121 202.346313,262.083923 
	C189.288300,262.019836 176.679413,262.033264 163.679520,262.026062 
	C162.505768,262.016968 161.722992,262.028473 160.502380,261.984772 
	C158.181946,261.929565 156.299362,261.929565 153.996964,261.929565 
	C153.996964,265.471161 153.996964,268.236145 153.873444,271.141418 
	C153.749939,271.281738 153.951538,271.596619 153.951538,271.596619 
z"/>
<path fill="#ADBDC6" opacity="1.000000" stroke="none" 
	d="
M295.741760,271.707275 
	C293.745361,265.104401 288.115814,262.522552 282.514496,260.135284 
	C279.975647,259.053192 277.066559,258.839752 273.909027,258.148712 
	C274.520416,257.392059 275.545380,256.136810 276.576447,256.131775 
	C297.301331,256.030426 318.027008,256.057312 338.752319,256.119751 
	C340.219818,256.124176 341.685852,256.603210 343.550354,256.980896 
	C343.707611,257.553070 343.467102,258.005920 343.110107,258.687805 
	C332.297211,256.953735 323.104523,259.709961 315.675873,267.761597 
	C314.866913,268.638428 314.532715,269.953308 313.760010,271.552246 
	C312.325195,273.465210 310.681641,274.711029 309.988129,276.357117 
	C308.830933,279.103729 306.979614,280.632385 304.281525,279.778564 
	C302.445740,279.197632 300.902679,277.468475 299.423431,276.049774 
	C298.061066,274.743164 296.958649,273.165527 295.741760,271.707275 
z"/>
<path fill="#04893A" opacity="1.000000" stroke="none" 
	d="
M76.044731,218.866165 
	C75.690430,220.590454 75.048676,222.311600 75.029793,224.039551 
	C74.928696,233.291977 74.964897,242.546112 74.989601,251.799576 
	C75.007278,258.421661 76.438499,259.830139 83.570358,259.986084 
	C83.587021,260.617920 83.189598,261.250580 82.511444,261.962402 
	C75.038300,261.461578 72.979607,259.270264 72.985100,252.080429 
	C72.993858,240.634018 73.037720,229.187653 73.394211,217.332214 
	C74.088409,216.999619 74.455132,217.076080 74.959702,217.378479 
	C75.413284,218.025024 75.729004,218.445587 76.044731,218.866165 
z"/>
<path fill="#99A7AE" opacity="1.000000" stroke="none" 
	d="
M248.158875,271.837708 
	C248.408951,265.403534 253.606308,263.033722 258.237305,259.749878 
	C259.116425,259.355530 259.700958,259.129517 260.646851,259.329224 
	C261.045868,260.062439 261.083588,260.369995 261.121307,260.677521 
	C257.514038,264.117554 253.906784,267.557587 250.293411,271.328186 
	C249.716904,271.765411 249.146515,271.872070 248.158875,271.837708 
z"/>
<path fill="#038134" opacity="1.000000" stroke="none" 
	d="
M129.212006,250.755890 
	C128.915588,240.142990 128.932632,229.574829 129.066772,218.300125 
	C129.461136,217.358932 129.738403,217.124268 130.015656,216.889587 
	C130.039246,227.874939 130.062836,238.860291 130.120590,250.287369 
	C129.944992,250.752930 129.735245,250.776764 129.212006,250.755890 
z"/>
<path fill="#ADBDC6" opacity="1.000000" stroke="none" 
	d="
M261.519531,260.578979 
	C261.083588,260.369995 261.045868,260.062439 260.958740,259.292603 
	C264.828369,258.288910 268.747375,257.747528 272.583679,257.635498 
	C268.973236,258.870056 265.445496,259.675232 261.519531,260.578979 
z"/>
<path fill="#3E5E5B" opacity="1.000000" stroke="none" 
	d="
M130.030701,216.432159 
	C129.738403,217.124268 129.461136,217.358932 129.054535,217.836639 
	C126.983788,218.371399 125.043304,218.908707 123.100838,218.915970 
	C107.725853,218.973557 92.350494,218.930161 76.509995,218.891998 
	C75.729004,218.445587 75.413284,218.025024 75.013992,217.064911 
	C74.975594,216.319031 75.020760,216.112701 75.434219,216.102264 
	C76.755386,216.526764 77.708443,216.955048 78.661064,216.954086 
	C93.764977,216.938950 108.868828,216.868744 124.366959,216.866440 
	C125.910439,216.000656 128.029175,215.110001 128.059189,214.153778 
	C128.366333,204.367401 128.371796,194.570236 128.331039,184.776611 
	C128.327515,183.928894 127.392990,183.085052 126.925522,181.875397 
	C126.980095,181.268402 127.000069,181.025452 127.020050,180.782486 
	C128.049469,182.579361 129.918365,184.353134 129.968552,186.176956 
	C130.241684,196.102753 130.066605,206.040863 130.030701,216.432159 
z"/>
<path fill="#2B3F42" opacity="1.000000" stroke="none" 
	d="
M75.065918,215.906372 
	C75.020760,216.112701 74.975594,216.319031 74.876144,216.838943 
	C74.455132,217.076080 74.088409,216.999619 73.450241,216.852829 
	C73.161964,214.134308 73.048523,211.481506 73.174919,208.840164 
	C73.226883,207.754227 73.575798,205.906769 74.163116,205.742706 
	C79.779091,204.173981 78.642944,199.704193 78.944214,195.696106 
	C79.012672,194.785416 80.373924,193.971878 81.557632,193.600464 
	C82.017197,200.102905 82.059235,206.118515 81.980637,212.273575 
	C81.860016,212.413010 81.498009,212.483154 81.020050,212.395996 
	C80.218651,212.325989 79.895210,212.343124 79.316513,212.146667 
	C78.223129,211.646301 77.385002,211.359543 76.546875,211.072784 
	C76.053223,212.683975 75.559570,214.295166 75.065918,215.906372 
z"/>
<path fill="#3A6668" opacity="1.000000" stroke="none" 
	d="
M126.664337,180.583633 
	C127.000069,181.025452 126.980095,181.268402 126.468323,181.820847 
	C118.234146,182.108368 110.485283,182.267517 102.751976,181.991180 
	C98.630348,181.843918 95.704987,183.022339 93.900208,187.014160 
	C93.691383,187.103088 93.262199,187.250900 93.108177,187.090775 
	C92.954155,186.930649 92.650429,186.606308 92.650429,186.606308 
	C93.840118,181.962097 96.673447,179.831726 101.615288,180.016724 
	C109.839470,180.324585 118.076813,180.280594 126.664337,180.583633 
z"/>
<path fill="#3A6668" opacity="1.000000" stroke="none" 
	d="
M82.101273,212.134140 
	C82.059235,206.118515 82.017197,200.102905 81.964508,193.637192 
	C82.507988,194.467743 83.062126,195.748383 83.777527,197.401733 
	C86.609543,193.804779 89.329338,190.350372 92.349777,186.751129 
	C92.650429,186.606308 92.954155,186.930649 93.002914,187.415527 
	C88.377678,195.350739 81.095291,201.639252 82.413185,211.766357 
	C82.427139,211.873596 82.210342,212.010880 82.101273,212.134140 
z"/>
<path fill="#F8F9F9" opacity="1.000000" stroke="none" 
	d="
M295.363434,271.710449 
	C296.958649,273.165527 298.061066,274.743164 299.423431,276.049774 
	C300.902679,277.468475 302.445740,279.197632 304.281525,279.778564 
	C306.979614,280.632385 308.830933,279.103729 309.988129,276.357117 
	C310.681641,274.711029 312.325195,273.465210 313.887451,271.890961 
	C314.384827,272.738770 314.943695,273.892700 314.628021,274.708069 
	C308.346924,290.931305 314.688660,304.425476 331.611206,309.962402 
	C331.448578,310.373230 330.925873,310.996643 330.404999,310.995117 
	C312.816956,310.943848 295.229126,310.833130 277.367920,310.414429 
	C294.477722,306.621002 302.459015,287.720459 294.604187,273.982666 
	C294.309570,273.467377 294.839447,272.480652 295.363434,271.710449 
z"/>
<path fill="#505D63" opacity="1.000000" stroke="none" 
	d="
M321.925232,287.689758 
	C321.954498,278.989990 326.590332,272.169037 332.930511,271.045624 
	C340.902222,269.633179 348.031250,273.064026 350.735809,279.625488 
	C354.528839,288.827759 349.931976,296.993286 341.532135,300.171417 
	C332.641052,303.535400 324.182861,298.069946 321.925232,287.689758 
M335.712067,274.035400 
	C327.336304,274.328400 321.187805,285.185822 327.645355,293.087036 
	C331.144379,297.368286 336.951965,298.633728 342.082428,296.325745 
	C346.409821,294.378967 349.357941,289.000000 348.573730,284.482056 
	C347.503876,278.318573 343.511383,274.850616 335.712067,274.035400 
z"/>
<path fill="#4F5D63" opacity="1.000000" stroke="none" 
	d="
M117.448914,290.017609 
	C115.103668,296.685608 110.621384,300.309296 104.067848,300.923584 
	C98.362206,301.458374 93.606308,299.273926 90.305771,294.451202 
	C86.648964,289.107910 86.939087,281.341583 90.880325,276.220642 
	C94.565262,271.432739 101.400879,269.427460 107.570557,271.324432 
	C113.627754,273.186829 117.933052,279.072876 117.992157,285.688324 
	C118.003922,287.005341 117.736633,288.324890 117.448914,290.017609 
M95.016586,294.534698 
	C100.666573,298.287994 104.921356,298.463196 109.729759,295.177338 
	C113.535408,292.576691 115.138252,288.872070 114.531952,284.444763 
	C113.799240,279.094269 109.927277,275.063507 104.959076,274.210876 
	C100.133492,273.382751 96.015877,274.848206 93.166504,278.923218 
	C89.809555,283.724182 90.273567,288.060730 95.016586,294.534698 
z"/>
<path fill="#7F95A2" opacity="1.000000" stroke="none" 
	d="
M186.001480,139.611786 
	C185.372696,139.642944 184.532913,139.464447 183.892776,139.095718 
	C184.658432,139.071030 185.224472,139.236572 186.001480,139.611786 
z"/>
<path fill="#93A3A9" opacity="1.000000" stroke="none" 
	d="
M203.229156,280.390961 
	C190.394180,280.434113 177.559235,280.477234 164.368744,279.880463 
	C164.053757,276.473114 164.094315,273.705658 164.592926,270.958069 
	C177.557846,270.936951 190.064713,270.896027 202.644867,271.297791 
	C202.888474,274.623962 203.058823,277.507477 203.229156,280.390961 
z"/>
<path fill="#8C9AA1" opacity="1.000000" stroke="none" 
	d="
M153.988464,272.061981 
	C153.951538,271.596619 153.749939,271.281738 154.308075,271.153625 
	C156.889282,271.004242 158.912354,270.982971 160.971619,271.414307 
	C160.992752,274.594879 160.977646,277.322845 160.962555,280.050842 
	C154.112900,281.916840 154.007294,281.802307 153.988464,272.061981 
z"/>
<path fill="#869198" opacity="1.000000" stroke="none" 
	d="
M212.306473,271.444183 
	C212.306473,271.444183 212.265930,271.499359 212.272400,271.460907 
	C212.216110,272.748169 211.994934,274.088867 212.118790,275.396912 
	C212.586945,280.340851 210.207352,281.624939 205.595291,280.090759 
	C205.560349,276.819611 205.748276,273.944672 206.392822,271.086487 
	C208.668457,271.216858 210.487473,271.330505 212.306473,271.444183 
z"/>
<path fill="#545E67" opacity="1.000000" stroke="none" 
	d="
M205.936188,271.069763 
	C205.748276,273.944672 205.560349,276.819611 205.181259,279.997528 
	C204.599701,280.371582 204.209335,280.442596 203.524063,280.452271 
	C203.058823,277.507477 202.888474,274.623962 202.717560,270.869080 
	C202.743118,267.385590 202.769272,264.773529 202.795410,262.161469 
	C203.596466,262.099121 204.397537,262.036774 205.539124,262.436218 
	C205.898499,265.621887 205.917343,268.345825 205.936188,271.069763 
z"/>
<path fill="#515C65" opacity="1.000000" stroke="none" 
	d="
M161.322998,280.206024 
	C160.977646,277.322845 160.992752,274.594879 161.016357,270.970337 
	C160.996643,267.395844 160.968430,264.717896 160.940231,262.039978 
	C161.722992,262.028473 162.505768,262.016968 163.642014,262.470032 
	C164.041962,265.602448 164.088409,268.270325 164.134857,270.938202 
	C164.094315,273.705658 164.053757,276.473114 164.001022,279.705719 
	C163.220383,280.234314 162.451920,280.297760 161.322998,280.206024 
z"/>
<path fill="#869198" opacity="1.000000" stroke="none" 
	d="
M246.093658,272.193848 
	C246.070374,271.929382 246.463318,271.635803 246.674377,271.760712 
	C246.629257,272.076508 246.373093,272.267395 246.093658,272.193848 
z"/>
<path fill="#22403A" opacity="1.000000" stroke="none" 
	d="
M120.863098,235.939270 
	C118.980179,235.303696 117.519150,234.654816 116.058121,234.005936 
	C116.988304,233.068619 117.882645,231.404037 118.856667,231.356049 
	C120.524628,231.273849 122.242416,232.203064 123.939278,232.707581 
	C123.054512,233.780380 122.169746,234.853165 120.863098,235.939270 
z"/>
<path fill="#505D63" opacity="1.000000" stroke="none" 
	d="
M259.185089,292.417847 
	C256.385986,283.985565 257.678497,278.893555 263.661041,273.737946 
	C267.486023,270.441681 274.680634,269.763153 279.626862,272.232208 
	C285.218842,275.023560 288.363922,280.544067 287.983734,286.900848 
	C287.579651,293.656830 283.249146,298.608521 276.089233,300.501526 
	C269.616180,302.212921 263.487976,299.383942 259.185089,292.417847 
M284.490234,287.894562 
	C284.927643,281.484222 281.785522,276.198486 276.494812,274.444397 
	C271.650757,272.838409 265.550751,275.012146 262.905334,279.286377 
	C260.281921,283.525116 260.267792,287.907745 262.851685,292.033600 
	C265.338562,296.004486 269.298889,297.910950 273.935516,297.378693 
	C279.148041,296.780365 282.875763,293.973999 284.490234,287.894562 
z"/>
<path fill="#B1C2CA" opacity="1.000000" stroke="none" 
	d="
M164.592926,270.958069 
	C164.088409,268.270325 164.041962,265.602448 164.033005,262.490631 
	C176.679413,262.033264 189.288300,262.019836 202.346313,262.083923 
	C202.769272,264.773529 202.743118,267.385590 202.644287,270.426361 
	C190.064713,270.896027 177.557846,270.936951 164.592926,270.958069 
z"/>
<path fill="#ADBDC5" opacity="1.000000" stroke="none" 
	d="
M160.502380,261.984741 
	C160.968430,264.717896 160.996643,267.395844 160.980133,270.517761 
	C158.912354,270.982971 156.889282,271.004242 154.431595,271.013306 
	C153.996964,268.236145 153.996964,265.471161 153.996964,261.929565 
	C156.299362,261.929565 158.181946,261.929565 160.502380,261.984741 
z"/>
<path fill="#B2C2CB" opacity="1.000000" stroke="none" 
	d="
M206.392822,271.086487 
	C205.917343,268.345825 205.898499,265.621887 205.940720,262.449524 
	C207.969223,262.001099 209.936661,262.001099 212.570404,262.001099 
	C212.570404,265.114014 212.570404,267.880859 212.438446,271.045959 
	C210.487473,271.330505 208.668457,271.216858 206.392822,271.086487 
z"/>
<path fill="#83C1EA" opacity="1.000000" stroke="none" 
	d="
M81.980644,212.273575 
	C82.210342,212.010880 82.427139,211.873596 82.413185,211.766357 
	C81.095291,201.639252 88.377678,195.350739 93.156937,187.575653 
	C93.262199,187.250900 93.691383,187.103088 94.177986,187.190689 
	C104.433960,197.122574 114.203331,206.966858 123.972702,216.811142 
	C108.868828,216.868744 93.764977,216.938950 78.661064,216.954086 
	C77.708443,216.955048 76.755386,216.526764 75.434219,216.102264 
	C75.559570,214.295166 76.053223,212.683975 76.546875,211.072784 
	C77.385002,211.359543 78.223129,211.646301 79.525757,212.312622 
	C80.492844,212.622498 80.995430,212.552826 81.498009,212.483154 
	C81.498009,212.483154 81.860016,212.413010 81.980644,212.273575 
z"/>
<path fill="#45A0DE" opacity="1.000000" stroke="none" 
	d="
M124.366959,216.866440 
	C114.203331,206.966858 104.433960,197.122574 94.386810,187.101776 
	C95.704987,183.022339 98.630348,181.843918 102.751976,181.991180 
	C110.485283,182.267517 118.234146,182.108368 126.433731,182.184875 
	C127.392990,183.085052 128.327515,183.928894 128.331039,184.776611 
	C128.371796,194.570236 128.366333,204.367401 128.059189,214.153778 
	C128.029175,215.110001 125.910439,216.000656 124.366959,216.866440 
z"/>
<path fill="#3A6668" opacity="1.000000" stroke="none" 
	d="
M81.020050,212.395996 
	C80.995430,212.552826 80.492844,212.622498 79.781013,212.526215 
	C79.895210,212.343124 80.218651,212.325989 81.020050,212.395996 
z"/>
<path fill="#859299" opacity="1.000000" stroke="none" 
	d="
M336.119873,274.027039 
	C343.511383,274.850616 347.503876,278.318573 348.573730,284.482056 
	C349.357941,289.000000 346.409821,294.378967 342.082428,296.325745 
	C336.951965,298.633728 331.144379,297.368286 327.645355,293.087036 
	C321.187805,285.185822 327.336304,274.328400 336.119873,274.027039 
M336.569977,289.547699 
	C337.937378,288.230743 339.739471,287.104401 340.444214,285.496918 
	C340.702423,284.907959 338.525940,282.537170 337.149048,282.180756 
	C336.120575,281.914520 333.433044,283.717133 333.509888,284.354156 
	C333.720673,286.101868 334.999481,287.720734 336.569977,289.547699 
z"/>
<path fill="#849198" opacity="1.000000" stroke="none" 
	d="
M94.743942,294.272095 
	C90.273567,288.060730 89.809555,283.724182 93.166504,278.923218 
	C96.015877,274.848206 100.133492,273.382751 104.959076,274.210876 
	C109.927277,275.063507 113.799240,279.094269 114.531952,284.444763 
	C115.138252,288.872070 113.535408,292.576691 109.729759,295.177338 
	C104.921356,298.463196 100.666573,298.287994 94.743942,294.272095 
M105.376007,282.910217 
	C103.492500,283.134125 101.417717,282.978638 99.825996,283.781219 
	C99.244431,284.074463 99.215012,287.314514 99.998772,288.010040 
	C101.054260,288.946716 104.142975,289.452087 104.581154,288.849579 
	C105.591858,287.459808 105.530602,285.290436 105.376007,282.910217 
z"/>
<path fill="#849198" opacity="1.000000" stroke="none" 
	d="
M284.371765,288.260803 
	C282.875763,293.973999 279.148041,296.780365 273.935516,297.378693 
	C269.298889,297.910950 265.338562,296.004486 262.851685,292.033600 
	C260.267792,287.907745 260.281921,283.525116 262.905334,279.286377 
	C265.550751,275.012146 271.650757,272.838409 276.494812,274.444397 
	C281.785522,276.198486 284.927643,281.484222 284.371765,288.260803 
M273.267731,289.569733 
	C274.341980,288.011597 275.831055,286.560486 276.274933,284.839752 
	C276.439545,284.201538 274.043762,282.040405 273.009155,282.166138 
	C271.608673,282.336365 269.174500,284.336121 269.342255,285.026642 
	C269.751953,286.713043 271.402557,288.097961 273.267731,289.569733 
z"/>
<path fill="#F1F3F4" opacity="1.000000" stroke="none" 
	d="
M336.212769,289.469147 
	C334.999481,287.720734 333.720673,286.101868 333.509888,284.354156 
	C333.433044,283.717133 336.120575,281.914520 337.149048,282.180756 
	C338.525940,282.537170 340.702423,284.907959 340.444214,285.496918 
	C339.739471,287.104401 337.937378,288.230743 336.212769,289.469147 
z"/>
<path fill="#F2F3F4" opacity="1.000000" stroke="none" 
	d="
M105.640106,283.173767 
	C105.530602,285.290436 105.591858,287.459808 104.581154,288.849579 
	C104.142975,289.452087 101.054260,288.946716 99.998772,288.010040 
	C99.215012,287.314514 99.244431,284.074463 99.825996,283.781219 
	C101.417717,282.978638 103.492500,283.134125 105.640106,283.173767 
z"/>
<path fill="#F2F4F5" opacity="1.000000" stroke="none" 
	d="
M272.910675,289.586975 
	C271.402557,288.097961 269.751953,286.713043 269.342255,285.026642 
	C269.174500,284.336121 271.608673,282.336365 273.009155,282.166138 
	C274.043762,282.040405 276.439545,284.201538 276.274933,284.839752 
	C275.831055,286.560486 274.341980,288.011597 272.910675,289.586975 
z"/>
</svg>